<?xml version="1.0" encoding="UTF-8" standalone="no"?>
<!-- Created with Inkscape (http://www.inkscape.org/) -->

<svg
   xmlns:dc="http://purl.org/dc/elements/1.1/"
   xmlns:cc="http://creativecommons.org/ns#"
   xmlns:rdf="http://www.w3.org/1999/02/22-rdf-syntax-ns#"
   xmlns:svg="http://www.w3.org/2000/svg"
   xmlns="http://www.w3.org/2000/svg"
   xmlns:sodipodi="http://sodipodi.sourceforge.net/DTD/sodipodi-0.dtd"
   xmlns:inkscape="http://www.inkscape.org/namespaces/inkscape"
   width="300mm"
   height="300mm"
   viewBox="0 0 1062.9922 1062.9921"
   id="svg5191"
   version="1.1"
   inkscape:version="0.91+devel r"
   sodipodi:docname="logo.svg">
  <defs
     id="defs5193" />
  <sodipodi:namedview
     id="base"
     pagecolor="#ffffff"
     bordercolor="#666666"
     borderopacity="1.0"
     inkscape:pageopacity="0.0"
     inkscape:pageshadow="2"
     inkscape:zoom="0.49497474"
     inkscape:cx="361.18346"
     inkscape:cy="810.58114"
     inkscape:document-units="px"
     inkscape:current-layer="layer1"
     showgrid="false"
     fit-margin-top="0"
     fit-margin-left="0"
     fit-margin-right="0"
     fit-margin-bottom="0"
     inkscape:window-width="2495"
     inkscape:window-height="1416"
     inkscape:window-x="65"
     inkscape:window-y="24"
     inkscape:window-maximized="1" />
  <metadata
     id="metadata5196">
    <rdf:RDF>
      <cc:Work
         rdf:about="">
        <dc:format>image/svg+xml</dc:format>
        <dc:type
           rdf:resource="http://purl.org/dc/dcmitype/StillImage" />
        <dc:title></dc:title>
      </cc:Work>
    </rdf:RDF>
  </metadata>
  <g
     inkscape:label="Layer 1"
     inkscape:groupmode="layer"
     id="layer1"
     transform="translate(-263.71653,261.2298)">
    <path
       d="m 456.73486,-207.82046 c -7.64038,52.74693 -17.96059,123.30979 -16.38265,175.048757 4.135,-4.24312 8.41492,-8.33999 12.74465,-12.382826 -3.33773,-3.513401 -6.00166,-7.571631 -7.5931,-12.081291 -4.31436,-12.23301 1.53924,-26.45974 8.23067,-36.61046 8.03164,-12.18077 18.45937,-22.06859 30.33549,-30.44179 8.58383,-6.04151 18.91205,-14.12416 29.39878,-18.71733 0.275,-0.61607 0.90845,-0.82487 1.45203,-0.61793 2.32976,-0.94529 4.66447,-1.71674 6.98195,-2.22841 0.92812,-0.20859 1.63998,0.10412 2.09819,0.66152 0.55859,-0.10483 1.14555,0 1.65718,0.19674 0.80653,-0.20284 1.67136,0 2.15229,0.84947 18.83713,33.91587 0.0991,125.160677 -52.39366,111.879207 -6.41991,-1.62282 -12.85827,-4.77196 -18.22967,-9.1108 -5.56492,4.67301 -11.15564,9.19308 -16.65916,13.57867 1.49935,37.0164696 7.14045,72.57656 19.32122,105.05213 103.70256,225.729463 267.11187,289.920563 479.87497,269.783063 143.80266,-13.6119 317.73606,-35.5938 381.84246,-169.38323 15.1907,-18.5091 6.0358,10.52384 1.2111,22.44431 C 1226.7592,399.85606 757.47094,386.73676 629.98788,299.49486 522.56915,225.98647 439.03046,104.22618 431.49327,-26.110643 c -5.30018,3.53978 -10.70663,7.09371 -16.21008,10.59303 2.88868,7.3651596 4.11281,15.48711961 3.67183,23.0716396 -3.58835,61.9682404 -109.80186,50.9784604 -140.37757,18.6872804 -0.78006,-0.8219 -0.68913,-1.83658 -0.18633,-2.64433 -0.07,-0.63754 0.047,-1.30581 0.35112,-1.88074 -0.44546,-0.69465 -0.54093,-1.58286 0.002,-2.52262 1.35992,-2.35923 3.00729,-4.6417 4.84197,-6.8634 -0.0359,-0.66701 0.41484,-1.28495 1.18055,-1.37772 8.63603,-9.8786204 21.03304,-18.3826504 30.60395,-25.67776 13.24953,-10.10039 27.65372,-18.08844 43.74036,-22.66445 13.40494,-3.81432 30.97801,-5.30506 42.86088,3.63076 4.37883,3.29224 7.89775,7.60469 10.58807,12.46637 6.15151,-3.46855 12.3429,-6.86215 18.6541,-10.02363 -2.514,-52.019577 12.545,-176.198737 19.11605,-229.736077 4.25289,0.002 8.51749,-2.8e-4 12.76374,-0.004 z m -66.06208,175.590447 c 7.54768,2.17132 12.8792,7.46231 16.40792,14.0419 -4.4814,2.56685 -8.96098,5.14171 -13.45341,7.69072 0.79723,-0.47904 0.79228,-1.5288 -0.0614,-1.9864 -5.09995,-2.72162 -10.32699,-5.26029 -15.12728,-8.78223 -4.70927,-3.45993 -9.06222,-7.3634 -13.60814,-11.0125 8.5973,-1.91882 17.48213,-2.35614 25.83997,0.0614 z m 59.07773,-34.011017 c -0.17735,6.85105 2.8224,12.6789 7.37381,17.33658 3.30944,-3.0527 6.62814,-6.1011 9.93148,-9.16921 -0.61119,0.53443 -1.48338,0.25814 -1.6406,-0.56509 -0.92751,-4.96169 -1.66457,-9.97444 -3.33772,-14.89316 -1.63998,-4.82664 -3.74313,-9.47387 -5.58883,-14.21327 -3.85492,6.64778 -6.5465,13.92763 -6.73814,21.50662 z m 13.0376,-30.7341 c -1.28682,1.61542 -2.50172,3.31493 -3.67183,5.04585 3.06743,5.8253 5.53113,12.09723 7.52309,18.34944 1.41391,4.42432 4.12451,11.54377 0.59579,15.33914 3.02937,-2.81874 6.04646,-5.64476 9.01867,-8.52611 -5.68101,-9.46651 -9.33565,-19.98824 -13.46572,-30.20832 z m 23.03297,20.56927 c 1.75731,-1.86976 3.44274,-3.76769 5.08581,-5.68964 -5.00348,-10.2115 -7.41499,-21.47707 -10.91976,-32.26663 -4.94515,4.17183 -9.52791,8.5507 -13.54435,13.04252 -0.37769,0.41778 -0.74385,0.85007 -1.11604,1.27637 4.50227,10.43445 7.79146,21.29771 12.71205,31.55782 2.64116,-2.59079 5.24919,-5.21975 7.78229,-7.92044 z m 16.9275,-21.39117 c -1.91212,-3.90217 -3.56743,-7.91858 -5.16074,-11.96514 -1.76528,-4.46913 -4.35302,-9.04141 -5.89718,-13.64692 -3.10064,2.18848 -6.11834,4.47652 -9.03839,6.83575 3.60426,10.78948 5.91808,21.89292 9.8289,32.57621 3.70314,-4.46238 7.149,-9.05009 10.26741,-13.7999 z m 10.81041,-6.76079 c 1.58106,-0.19028 3.16694,-0.35004 4.69947,-0.58336 3.92982,-0.59579 7.81055,-1.48518 11.5469,-2.83586 0.1673,-4.20009 0.0908,-8.40142 -0.31522,-12.54008 -3.22101,1.73268 -6.69079,3.57292 -10.10531,4.17183 -1.73092,4.02933 -3.69275,7.94813 -5.82595,11.78582 z m -35.41085,67.287447 c 13.12114,3.33407 23.51021,-2.78614 31.30537,-12.095977 -6.34438,0.94227 -13.51976,0.62343 -19.14,0.96679 -8.20604,0.49731 -17.92314,2.235191 -26.35526,1.20636 -0.80771,0.70328 -1.61054,1.415781 -2.42195,2.115401 5.02628,3.727756 11.00392,6.381206 16.61184,7.807426 z m 44.26434,-35.128957 c -4.59809,1.72356 -9.89948,2.21491 -14.53814,2.88318 -8.21473,1.1929 -16.61734,3.73825 -24.81117,4.45383 -4.53361,4.60552 -9.2398,9.04697 -14.03322,13.37174 6.10114,-0.46019 12.55845,0 18.29412,-0.22116 5.26517,-0.18453 10.53217,-0.36827 15.79368,-0.60188 2.51038,-0.11094 5.02621,-0.19674 7.53716,-0.28865 0.49792,0 0.99261,0 1.49017,-0.0614 4.36896,-6.08517 7.78653,-13.07196 10.2674,-19.56137 z m 5.25472,-18.23639 c -3.25906,1.74069 -7.49541,2.27756 -10.86814,2.99315 -5.41994,1.14185 -10.91298,1.90285 -16.37166,2.85489 -3.86656,5.0023 -8.02794,9.82707 -12.3773,14.50198 4.95682,-1.37531 10.50945,-1.65596 15.24702,-2.17132 6.86519,-0.7432 13.51113,-1.88016 20.25233,-3.05518 1.67315,-4.81246 3.06437,-9.89823 4.11775,-15.12352 z m 2.01835,-15.2734 c -2.63075,1.15962 -5.34563,2.04603 -8.17474,2.77752 -3.19336,0.82495 -6.68407,1.81565 -10.08627,2.30642 -2.38562,3.998 -4.96723,7.88609 -7.72203,11.68142 8.24109,-1.027 17.48275,-0.94342 24.57588,-4.76029 0.67933,-3.95562 1.15962,-7.97261 1.40716,-12.00507 z m -3.66511,-31.04062 c -1.25544,5.79457 -3.01953,11.37489 -5.12756,16.79849 1.21002,-0.39301 2.42374,-0.76771 3.57607,-1.24686 1.57425,-0.64741 3.1252,-1.3495 4.67858,-2.04042 -0.62713,-4.63133 -1.6351,-9.16677 -3.12709,-13.51121 z m -11.15374,2.6725 c -0.30121,-0.76412 -0.61607,-1.61912 -0.89678,-2.50545 -2.4999,1.23458 -5.00414,2.57729 -7.49541,3.98018 2.46736,5.4654 4.21358,11.24285 6.329,16.86492 1.83715,-4.00974 3.51892,-8.10542 4.96418,-12.32883 -1.08839,-1.94339 -2.07917,-3.92311 -2.90099,-6.01082 z m 6.37076,-5.84131 c -1.43118,0.6081 -2.87086,1.25551 -4.31245,1.92561 0.18022,0.99813 0.36709,1.99006 0.65595,2.92371 0.36943,1.20633 0.82922,2.38505 1.32491,3.55023 0.85869,-2.7511 1.64059,-5.55077 2.33159,-8.39955 z m -17.70878,9.03465 c -3.10803,1.83532 -6.18468,3.80085 -9.20917,5.84868 2.21491,3.1375 3.38993,7.08642 4.74492,10.6225 1.81382,4.72338 3.49437,9.49412 5.3401,14.20034 2.56071,-4.09324 4.92555,-8.29275 7.04094,-12.62484 -2.95631,-5.85851 -5.20741,-12.06222 -7.91679,-18.04668 z M 352.57162,-28.577143 c 2.21121,-0.84764 4.48876,-1.59152 6.78538,-2.27882 5.30693,5.36958 11.3153,10.22016 17.46006,14.56274 4.35058,3.07115 11.19675,8.4861796 16.56822,5.93832 -4.12637,2.3402396 -8.25954,4.6614196 -12.43143,6.9193696 -8.39216,-9.4769896 -18.63501,-17.1044496 -28.38223,-25.1416096 z m 14.54187,32.2752096 c -2.64673,1.2745 -5.30693,2.46 -7.97452,3.59506 -9.43822,-8.99228 -20.92124,-15.51106 -31.50501,-23.0679396 6.2627,-3.96238 12.63346,-7.46593 18.92563,-10.30922 0.59208,-0.2646 1.18421,-0.5162 1.78308,-0.77817 9.85098,8.52481 20.59566,15.86549 30.11437,24.7846796 -3.74374,1.99009001 -7.51631,3.93718 -11.34355,5.77559 z M 337.88546,14.825417 c -3.59877,-3.43538 -7.41869,-6.6299704 -11.29322,-9.7693104 -4.27748,-3.47343 -8.38483,-7.88178 -12.88896,-11.15374 3.46115,-2.6375 7.01138,-5.1429596 10.59417,-7.5199996 10.55124,7.6575796 21.89109,14.01792961 32.21939,21.9782996 -6.15643,2.5091204 -12.35831,4.6939404 -18.63138,6.4647504 z m -11.11385,9.48553 c -0.75555,1.65962 -1.47477,3.34326 -2.25796,4.93287 -2.00908,4.09324 -4.31981,8.03164 -7.08444,11.64943 -4.65094,-1.26897 -9.21962,-2.7978 -13.60025,-4.66931 3.00722,-2.92867 6.21595,-6.08333 8.04575,-9.61267 5.00413,-0.49734 9.96464,-1.29547 14.8969,-2.30032 z m 85.7714,-15.5025204 c -0.88138,15.4975704 -11.15374,24.7411704 -24.02062,30.0480904 3.2143,-6.60605 5.34688,-14.55914 7.65944,-20.59084 3.37212,-8.7975204 8.62376,-18.82299039 10.4118,-28.39207 1.04602,-0.64428 2.10314,-1.2745 3.14239,-1.91882 2.3439,6.7798196 3.18475,14.2316096 2.80699,20.8536396 z M 358.87298,45.084107 c 3.46977,-4.43409 5.83457,-10.05982 8.16928,-14.89683 4.13499,-8.57461 9.81655,-16.88204 13.42394,-25.5979604 6.59557,-3.36045 13.07935,-6.97276 19.46063,-10.72504 -2.6099,6.51509001 -4.35127,13.7249 -6.55386,19.9237304 -2.01587,5.69329 -4.03731,11.38472 -6.10419,17.06266 -0.99078,2.70564 -1.94834,5.42177 -2.91818,8.13661 -0.18454,0.54035 -0.36947,1.0774 -0.55508,1.61732 -8.15887,2.67801 -16.9724,4.00475 -24.92236,4.47951 z m -21.75043,-0.54682 c 3.03494,-2.96302 5.0791,-7.41003 7.02248,-10.84847 3.11661,-5.52991 5.84441,-11.28097 8.77121,-16.91524 6.80132,-2.5036 13.50625,-5.38678 20.11719,-8.5298104 -3.21056,4.9482704 -5.43229,10.9222104 -7.63115,15.9189804 -3.17929,7.24852 -6.71602,14.11867 -10.32707,21.08895 -5.83579,0.1655 -11.87428,-0.0671 -17.95266,-0.71441 z m -17.38814,-3.0606 c 2.17125,-2.4809 4.07906,-5.13808 5.85356,-7.9813 2.0042,-3.20687 4.28485,-6.67729 6.00349,-10.23061 5.19204,-1.22596 10.3331,-2.71117 15.42939,-4.41014 -3.96238,8.65327 -7.06359,18.78805 -13.68131,25.22516 -4.5582,-0.62347 -9.11701,-1.48338 -13.60513,-2.60311 z m -32.67576,-14.71754 c 6.76941,0.62838 13.47987,0.62838 20.13443,0.191 -0.84638,1.18543 -1.67689,2.38138 -2.5927,3.48022 -1.25361,1.49569 -2.55389,2.95142 -3.84814,4.41014 -4.84502,-2.28427 -9.45542,-4.9463 -13.69359,-8.08197 z m 6.77131,-11.26676 c -0.73279,-0.59578 -1.55464,-1.23458 -2.43053,-1.84946 2.21304,-2.3052 4.54592,-4.5790604 6.93832,-6.8216104 5.12204,4.5845804 10.83497,8.4879804 16.25308,12.7366004 -5.01576,0.62835 -10.07209,1.05525 -15.19291,1.17505 -1.74441,-1.8574 -3.56749,-3.62515 -5.56796,-5.24058 z m -8.58387,4.9482 c 1.15599,-1.35808 2.3611,-2.70751 3.59015,-4.05141 1.02883,0.54032 2.05087,1.08591 2.97042,1.72349 1.19469,0.81816 2.32423,1.72901 3.42981,2.67617 -3.30821,0 -6.63668,-0.12243 -9.99038,-0.35076 z M 301.23321,4.1960866 c 3.07669,-2.76833 6.28539,-5.45006 9.57091,-8.04765 2.66393,3.50299001 6.5796,6.14415 9.97631,8.84858 4.53914,3.6123 9.1704,7.0950004 13.67514,10.7392204 -5.35604,1.38565 -10.76191,2.52445 -16.22421,3.33765 -5.38681,-5.25285 -11.3884,-9.8515504 -16.99815,-14.8778004 z"
       style="fill:#aec193;fill-opacity:1;fill-rule:evenodd;stroke:none;stroke-width:5.89247656"
       id="path3799"
       inkscape:connector-curvature="0"
       sodipodi:nodetypes="ccccccccccccccccsccccccccccccccccccccccccccccccccccccccccccccccccccccccccccccccccccccccccccccccccccccccccccccccccccccccccccccccccccccccccccccccccccccccccccccccccccccccccccccccccccccccccccccccccccccccccccccccc" />
    <path
       inkscape:connector-curvature="0"
       id="path3909-1"
       style="fill:#fbca98;fill-opacity:1;fill-rule:evenodd;stroke:none;stroke-width:4.25117826"
       d="m 817.191,329.95154 c 10.1888,-19.30035 17.52294,-32.57168 24.77375,-42.24311 7.25081,-9.67568 14.41702,-15.75529 21.51138,-18.90499 7.09777,-3.1514 14.11987,-3.37076 19.78244,-1.67751 5.66257,1.69069 9.96561,5.29356 15.16905,7.82684 5.20727,2.52945 11.31536,3.98123 14.36814,4.70946 3.05362,0.7278 3.05362,0.7278 1.09765,1.16524 -1.95342,0.43745 -5.85897,1.31574 -8.04876,2.10519 -2.18935,0.79029 -2.65698,1.49641 -2.10008,3.30656 0.55776,1.81016 2.14345,4.72731 3.54166,8.52447 1.39906,3.79587 2.6064,8.47047 2.88612,13.89327 0.27931,5.42153 -0.369,11.59254 -4.90586,18.90117 -4.53728,7.30905 -12.95929,15.75529 -23.20973,20.04855 -10.25002,4.29157 -22.32591,4.42888 -31.55182,4.51433 -9.22718,0.0808 -15.5997,0.11053 -20.76701,1.03389 -5.1673,0.91953 -9.12813,2.73053 -12.48528,5.35308 -3.35376,2.6183 -6.10597,6.05155 -7.81367,10.05616 -1.70387,4.00079 -2.3645,8.57761 -2.59449,13.5145 -0.22659,4.93477 -0.0255,10.23089 0.0757,12.87979 0.1016,2.64764 0.1016,2.64764 -4.31622,3.0379 -4.41528,0.39111 -13.24753,1.16907 -17.59988,1.55338 -4.34938,0.3826 -4.21802,0.36985 2.3679,-12.29994 6.58806,-12.67148 19.63407,-38.00043 29.81904,-57.29823" />
    <path
       inkscape:connector-curvature="0"
       id="path3911-8"
       style="fill:#fbca98;fill-opacity:1;fill-rule:evenodd;stroke:none;stroke-width:4.25117826"
       d="m 960.59293,272.7931 c 5.37434,2.18213 11.8238,5.99756 18.03478,10.8962 6.21097,4.89948 12.18557,10.88259 17.45534,15.66559 5.27185,4.783 9.84285,8.36334 14.81495,9.78621 4.9769,1.41947 10.3585,0.67976 14.9089,-1.1831 4.5539,-1.86329 8.2762,-4.84932 11.3856,-7.97989 3.1139,-3.13099 5.6141,-6.40865 6.8639,-8.0462 1.2507,-1.63883 1.2507,-1.63883 2.8368,-0.9799 1.5844,0.65553 4.7588,1.97169 8.5041,3.03662 3.7487,1.06407 8.0713,1.87519 10.2321,2.285 2.1618,0.40387 2.1618,0.40387 -1.5861,1.60015 -3.7474,1.1933 -11.2405,3.58289 -18.0454,7.03995 -6.8027,3.45621 -12.91,7.98116 -18.723,12.88107 -5.8148,4.89608 -11.3265,10.16329 -17.8002,15.12229 -6.4711,4.9539 -13.89797,9.59236 -21.67678,12.53843 -7.7771,2.94521 -15.90408,4.19378 -23.5443,4.20441 -7.63639,0 -14.78857,-1.21924 -21.15726,-4.11386 -6.36487,-2.89336 -11.94581,-7.44722 -15.78123,-11.75791 -3.83328,-4.31282 -5.92189,-8.37993 -6.60123,-13.83291 -0.68104,-5.45384 0.0442,-12.29398 0.82388,-17.01067 0.78009,-4.72136 1.6112,-7.31925 0.58581,-9.88611 -1.02198,-2.56686 -3.8996,-5.10227 -5.96993,-6.71219 -2.06777,-1.60992 -3.32357,-2.29819 -3.95359,-2.64041 -0.62663,-0.34434 -0.62663,-0.34434 0.71462,-0.19555 1.34252,0.14879 4.02459,0.4434 7.87488,-1.09298 3.85157,-1.5351 8.86584,-4.90331 13.36401,-7.35794 4.50115,-2.45845 8.4862,-4.00333 12.62685,-4.50114 4.14065,-0.49739 8.44029,0.051 13.8125,2.23441" />
    <path
       d="m 1184.0018,337.0455 c 2.3746,-5.9684 7.109,-9.8829 12.7501,-12.2225 1.7272,3.8543 3.463,7.7061 5.178,11.5659 -0.3307,-0.6861 -1.1836,-0.7678 -1.6228,-0.1105 -2.6271,3.9309 -5.1135,7.9831 -8.3676,11.6046 -3.1952,3.555 -6.7228,6.7816 -10.0605,10.1869 -0.8703,-7.1508 -0.505,-14.4165 2.1228,-21.0238 z m -0.098,31.3018 c -0.5097,-1.8686 -0.933,-3.7819 -1.3059,-5.7057 4.7971,-3.888 9.2301,-8.3872 13.2551,-13.0375 2.8507,-3.2923 7.8105,-8.4304 6.1706,-13.0045 1.5723,3.5466 3.1288,7.0968 4.6281,10.6729 -8.3872,6.0679 -15.4177,13.7881 -22.7479,21.0748 z m 27.4401,-9.235 c 0.8236,2.2585 1.5754,4.5164 2.2861,6.778 -8.0821,6.9561 -14.3141,15.7764 -21.315,23.7841 -2.7192,-5.4187 -5.0575,-10.884 -6.8633,-16.2358 -0.1673,-0.4979 -0.3278,-1.0067 -0.4891,-1.5117 7.7288,-7.3332 14.5677,-15.4853 22.5962,-22.5127 1.3176,3.2088 2.5976,6.4354 3.7849,9.6981 z m 6.6999,24.6803 c -3.0853,2.6554 -5.9949,5.5071 -8.8608,8.4064 -3.1688,3.2019 -7.0883,6.1877 -10.1139,9.588 -1.8685,-3.0256 -3.6215,-6.1146 -5.2671,-9.2244 7.0827,-7.969 13.1697,-16.6867 20.4827,-24.4519 1.546,5.2124 2.8255,10.4358 3.7591,15.6819 z m 6.8235,9.8111 c 1.2917,0.7487 2.6031,1.4698 3.8352,2.2357 3.1694,1.9656 6.1883,4.1596 8.9082,6.705 -1.4054,3.6792 -3.0215,7.2743 -4.8961,10.6906 -2.1381,-2.6811 -4.4507,-5.5489 -7.1718,-7.3229 0,-4.111 -0.2538,-8.2146 -0.6755,-12.3084 z m -5.7055,-71.0533 c 12.5413,1.9661 19.2375,11.072 22.5194,21.9715 -5.1172,-3.1498 -11.4186,-5.525 -16.1401,-7.891 -6.8862,-3.4575 -14.6236,-8.5365 -22.2689,-10.76 -0.4373,-0.9054 -0.8655,-1.8163 -1.3077,-2.7161 5.7074,-1.3581 11.8393,-1.4416 17.1973,-0.602 z m 25.1974,46.6027 c -3.3273,-3.1823 -7.7153,-5.5594 -11.4658,-7.8486 -6.6422,-4.057 -12.9467,-9.3498 -19.7474,-12.9873 -2.2075,-5.641 -4.6228,-11.2053 -7.1595,-16.699 5.0896,2.6449 10.8159,4.6436 15.6837,6.9353 4.4716,2.1013 8.9407,4.2025 13.3926,6.3425 2.1246,1.0221 4.2572,2.0233 6.3886,3.0313 0.4243,0.1967 0.8476,0.3871 1.2709,0.5774 1.5232,6.8566 1.8906,14.1383 1.6369,20.6461 z m -2.1959,17.6585 c -2.1676,-2.7088 -5.6201,-4.7321 -8.265,-6.5901 -4.2481,-2.9821 -8.7055,-5.6669 -13.0567,-8.5016 -1.4888,-5.7368 -3.2978,-11.4271 -5.3211,-17.0595 3.7684,3.0103 8.4481,5.3014 12.3398,7.4917 5.6443,3.1726 10.95,6.6042 16.3318,10.1041 -0.3364,4.7633 -1.0104,9.6593 -2.0288,14.5554 z m -3.893,13.903 c -1.842,-1.9674 -3.853,-3.7327 -6.0225,-5.4058 -2.4502,-1.8912 -5.0912,-4.0293 -7.8418,-5.7111 -0.5816,-4.3217 -1.3741,-8.6294 -2.3476,-12.9105 6.7228,3.9225 14.7201,7.2602 19.4275,13.1629 -0.8741,3.6596 -1.941,7.3008 -3.2156,10.8645 z m -14.61,25.4045 c 1.0571,-5.4562 1.5951,-10.9186 1.7782,-16.3698 0.8961,0.7856 1.8034,1.5583 2.6252,2.3943 1.1143,1.1387 2.1941,2.3119 3.2769,3.4838 -2.2481,3.7592 -4.7878,7.2971 -7.6803,10.4917 z m -8.6237,-6.4175 c -0.541,0.5468 -1.1296,1.1683 -1.699,1.8298 -1.6995,-1.9864 -3.3605,-4.0674 -4.9899,-6.1951 4.1417,-3.8021 7.7773,-8.136 11.6721,-12.2034 0.1063,4.1355 0.047,8.2828 -0.2664,12.4595 -1.6535,1.2709 -3.2382,2.6136 -4.7166,4.1092 z m 3.3346,7.3855 c -1.0098,-1.0515 -2.011,-2.1412 -3.0054,-3.2505 0.5238,-0.7924 1.0485,-1.5792 1.6399,-2.2788 0.7648,-0.9023 1.597,-1.7499 2.4551,-2.5718 -0.2771,2.6885 -0.632,5.3886 -1.0896,8.1011 z m -11.9301,-14.3189 c -2.0043,-2.7284 -3.93,-5.5557 -5.7787,-8.4371 3.0644,-1.8874 5.5311,-4.8579 8.0053,-7.4051 3.3064,-3.404 6.512,-6.8928 9.8411,-10.2674 0.6965,4.471 1.1854,8.9598 1.4103,13.4743 -4.7099,3.9593 -8.9358,8.4727 -13.478,12.6353 z m -14.2655,-13.0321 c 5.1681,8.3732 11.0893,19.1473 18.4336,26.972 0.011,0.6333 0.4809,1.0479 1.0252,1.0706 1.6614,1.6732 3.3868,3.1965 5.1975,4.4956 0.7223,0.5162 1.4502,0.5097 2.0528,0.2028 0.4443,0.2948 0.9766,0.4425 1.5006,0.4425 0.6185,0.4732 1.4347,0.6283 2.1682,0.061 28.7422,-22.2811 46.2421,-107.8363 -3.8986,-115.7476 -6.1361,-0.9699 -12.8428,-0.629 -19.0723,1.1296 -3.2647,-6.4593 -6.6196,-12.7815 -9.9346,-18.933 -0.8568,-1.5908 -3.5263,-0.3995 -2.9078,1.299 2.3888,6.5625 5.1086,12.9941 7.9236,19.3858 -4.1718,1.7966 -7.969,4.3112 -11.0002,7.6102 -8.2288,8.9511 -8.4302,23.3732 -6.4058,34.5891 2.4275,13.4608 7.7675,25.8277 14.9178,37.4255"
       style="fill:#aec193;fill-opacity:1;fill-rule:nonzero;stroke:none;stroke-width:5.89247656"
       id="path3805"
       inkscape:connector-curvature="0" />
    <path
       d="m 665.68943,349.21354 c 5.67793,-3.0067 11.82208,-2.9163 17.63263,-1.0411 -1.18421,4.0532 -2.3574,8.112 -3.55392,12.1616 0.19315,-0.7363 -0.4054,-1.3512 -1.16271,-1.135 -4.55145,1.2898 -9.06786,2.7628 -13.89629,3.4127 -4.73573,0.635 -9.51315,0.8058 -14.26303,1.2345 3.97348,-6.009 8.96163,-11.3055 15.24332,-14.6327 z m -20.3623,23.7719 c 0.82183,-1.7537 1.73954,-3.4846 2.70382,-5.1921 6.17057,0.1472 12.46335,-0.3996 18.54482,-1.3341 4.30391,-0.6597 11.41111,-1.3563 13.12609,-5.9022 -1.10013,3.7192 -2.21799,7.4328 -3.39301,11.1255 -10.31968,-0.8163 -20.67802,0.5038 -30.98172,1.3029 z m 26.87925,10.7544 c -0.83532,2.253 -1.72719,4.4612 -2.65344,6.6423 -10.66239,0.061 -21.12453,2.737 -31.64625,4.2954 1.44159,-5.8899 3.20381,-11.566 5.29834,-16.8121 0.19459,-0.4914 0.40185,-0.9785 0.60745,-1.468 10.63658,-0.571 21.13005,-2.347 31.79797,-2.4951 -1.07794,3.2978 -2.19405,6.5834 -3.40407,9.8375 z m -10.89579,23.1361 c -4.07234,0 -8.1342,0.307 -12.19671,0.6567 -4.48819,0.3871 -9.40874,0.1167 -13.91844,0.7469 0.5415,-3.5171 1.20819,-7.0065 1.9711,-10.44 10.55795,-1.4766 20.84445,-4.1682 31.4466,-5.342 -2.20259,4.9728 -4.61403,9.7785 -7.30255,14.3784 z m -1.16457,11.8933 c 0.4991,1.4091 1.02883,2.8071 1.4711,4.1897 1.1388,3.5496 2.01465,7.1785 2.43786,10.878 -3.45624,1.8931 -7.01695,3.5816 -10.65934,4.9679 0.1095,-3.4286 0.20859,-7.1091 -0.71376,-10.2238 2.66213,-3.1344 5.13072,-6.42 7.46414,-9.8118 z m 41.7135,-57.8013 c 8.2755,9.6269 7.4715,20.9004 2.9059,31.3282 -1.8562,-5.7167 -5.1153,-11.6084 -7.1748,-16.4712 -3.0017,-7.0968 -5.6011,-15.9785 -9.9818,-22.6294 0.2523,-0.9717 0.5167,-1.9428 0.764,-2.9164 5.2271,2.6658 9.9505,6.5778 13.4867,10.6888 z m -11.0211,51.8194 c -0.472,-4.5809 -2.272,-9.2337 -3.6424,-13.4086 -2.43047,-7.3947 -3.799,-15.5135 -6.62014,-22.6902 1.97656,-5.7264 3.74371,-11.5297 5.37324,-17.3575 2.1609,5.3144 5.2271,10.5481 7.4488,15.4491 2.0423,4.4974 4.0828,8.9966 6.0833,13.5112 0.9557,2.1553 1.9323,4.299 2.901,6.4475 0.1985,0.4236 0.3948,0.8458 0.5915,1.2672 -3.2837,6.2074 -7.7252,11.9897 -12.1353,16.7813 z m -13.11933,12.0223 c 0.10412,-3.4685 -1.21372,-7.2467 -2.02143,-10.3737 -1.30276,-5.0268 -2.95624,-9.9591 -4.431,-14.9386 2.58527,-5.3334 4.89599,-10.8387 7.00585,-16.4399 0.91765,4.7358 2.99685,9.5138 4.54097,13.7047 2.23894,6.0747 4.05694,12.1267 5.88494,18.2794 -3.3426,3.4096 -7.03045,6.7 -10.97933,9.7681 z m -11.97746,8.063 c -0.12709,-2.6916 -0.51325,-5.3401 -1.08103,-8.0213 -0.6388,-3.0262 -1.26406,-6.3658 -2.2702,-9.4314 2.36046,-3.6669 4.54776,-7.461 6.58273,-11.3522 2.57726,7.3437 6.50158,15.0695 6.25957,22.6171 -3.03673,2.2199 -6.21042,4.3003 -9.49107,6.1878 z m -27.5911,9.8737 c 4.34196,-3.4698 8.29271,-7.2792 11.96454,-11.3117 0.17448,1.1788 0.36415,2.3556 0.44783,3.5239 0.1113,1.5896 0.17089,3.1847 0.23623,4.7775 -4.14913,1.4053 -8.37621,2.4532 -12.64882,3.0103 z m -2.40655,-10.4763 c -0.76962,0.068 -1.61726,0.1537 -2.48087,0.2948 -0.007,-2.6148 0.0779,-5.275 0.21577,-7.953 5.61895,-0.2086 11.19553,-1.1529 16.79853,-1.7254 -2.59941,3.2155 -5.33335,6.3376 -8.27917,9.3148 -2.08405,-0.1041 -4.15955,-0.1102 -6.25412,0.074 z m -2.24934,7.7847 c -0.0872,-1.4539 -0.14325,-2.9335 -0.18094,-4.4224 0.91215,-0.2639 1.82117,-0.5221 2.72657,-0.6719 1.16641,-0.1903 2.34879,-0.3013 3.53609,-0.3683 -1.95326,1.8678 -3.97466,3.6946 -6.08147,5.4617 z m 0.19854,-18.6368 c 0.24233,-3.3747 0.60935,-6.7769 1.06878,-10.1699 3.55576,0.5528 7.35964,-0.1167 10.89637,-0.4484 4.72341,-0.4484 9.42594,-1.0288 14.14813,-1.4397 -2.36784,3.8586 -4.90461,7.5931 -7.66062,11.1747 -6.15334,-0.061 -12.2981,0.6596 -18.45266,0.8844 z m -2.41513,-19.1701 c -1.492,9.7263 -3.96795,21.7694 -3.44705,32.4877 -0.40246,0.4914 -0.31522,1.1093 0.0865,1.4785 0.17915,2.3506 0.50499,4.6294 1.04176,6.7921 0.21576,0.8636 0.77457,1.3298 1.43239,1.4852 0.14684,0.5162 0.45606,0.9729 0.85683,1.3089 0.16479,0.7611 0.68611,1.4091 1.61234,1.4509 36.32856,1.6657 105.1129,-52.1364 72.0631,-90.6639 -4.0447,-4.7147 -9.3725,-8.8031 -15.2574,-11.5019 1.7026,-7.036 3.2456,-14.0229 4.7081,-20.8568 0.3795,-1.7671 -2.4219,-2.5927 -3.054,-0.8949 -2.436,6.5446 -4.5336,13.2047 -6.53415,19.8954 -4.34078,-1.3353 -8.86272,-1.8819 -13.30913,-1.3353 -12.06771,1.4821 -21.57106,12.3344 -27.29936,22.1853 -6.87751,11.8239 -10.82761,24.7031 -12.90003,38.1688"
       style="fill:#aec193;fill-opacity:1;fill-rule:nonzero;stroke:none;stroke-width:5.89247656"
       id="path3807"
       inkscape:connector-curvature="0" />
    <path
       d="m 700.27033,293.9589 c 0.029,4.7548 2.2407,8.7263 5.4999,11.8565 2.2272,-2.1934 4.4611,-4.3807 6.6809,-6.5796 -0.4125,0.3807 -1.022,0.2086 -1.1474,-0.3624 -0.7542,-3.4182 -1.377,-6.8775 -2.6467,-10.2502 -1.2462,-3.3102 -2.8101,-6.4839 -4.1939,-9.72942 -2.5233,4.69582 -4.2277,9.80252 -4.1928,15.06272 z m 8.3536,-21.60235 c -0.8544,1.15103 -1.6609,2.35557 -2.4354,3.58157 2.2597,3.96978 4.1073,8.26318 5.6306,12.55358 1.0779,3.0361 3.1147,7.9112 0.7536,10.6243 2.0393,-2.0214 4.0674,-4.0515 6.0612,-6.1135 -4.1491,-6.4383 -6.9174,-13.65176 -10.01,-20.64595 z m 16.4293,13.74765 c 1.175,-1.3353 2.3034,-2.6897 3.4004,-4.0564 -3.6995,-6.96963 -5.622,-14.72673 -8.2945,-22.12998 -3.3328,3.00359 -6.4144,6.14103 -9.0992,9.34477 -0.2488,0.30121 -0.4962,0.6081 -0.7432,0.91032 3.3549,7.1355 5.8763,14.59419 9.5199,21.59699 1.7708,-1.8575 3.5208,-3.7364 5.2166,-5.6657 z m 11.2582,-15.21017 c -1.4121,-2.66027 -2.6497,-5.40763 -3.8463,-8.17779 -1.323,-3.05957 -3.221,-6.1742 -4.3911,-9.33073 -2.1031,1.58401 -4.1418,3.24 -6.1128,4.94083 2.7388,7.40024 4.5896,15.04737 7.5409,22.36646 2.4686,-3.17731 4.7547,-6.43462 6.8093,-9.79877 z m 7.3437,-4.92727 c 1.0922,-0.16551 2.1904,-0.31342 3.2456,-0.50969 2.7131,-0.50381 5.3837,-1.20457 7.9432,-2.22662 0.025,-2.91513 -0.1238,-5.82595 -0.4979,-8.68637 -2.1953,1.27264 -4.56,2.62886 -6.9137,3.1178 -1.1094,2.83281 -2.3839,5.59439 -3.7769,8.30377 z m -23.0488,47.44354 c 9.174,2.0196 16.2395,-2.4569 21.4352,-9.0869 -4.3757,0.7942 -9.3571,0.7365 -13.2483,1.0989 -5.6778,0.528 -12.3779,1.9483 -18.2468,1.4256 -0.5439,0.5038 -1.0847,1.019 -1.6314,1.5202 3.5693,2.4723 7.7737,4.1786 11.6913,5.0422 z m 29.9073,-25.3455 c -3.1497,1.2991 -6.8131,1.7567 -10.015,2.3261 -5.6705,1.0086 -11.4406,2.9618 -17.1062,3.6393 -3.0398,3.2941 -6.2019,6.4801 -9.4285,9.5844 4.2204,-0.4549 8.7055,-0.2887 12.6771,-0.5592 3.6479,-0.2455 7.2952,-0.4908 10.9394,-0.7696 1.7377,-0.1353 3.479,-0.252 5.2185,-0.3683 0.3446,0 0.6892,-0.061 1.0325,-0.061 2.8937,-4.3161 5.1067,-9.2361 6.6822,-13.7911 z m 3.237,-12.76243 c -2.2235,1.28309 -5.1473,1.74812 -7.4697,2.31752 -3.7314,0.91391 -7.5248,1.56563 -11.2876,2.34881 -2.5699,3.5539 -5.3469,6.9886 -8.2583,10.3282 3.4077,-1.062 7.2503,-1.382 10.5217,-1.8451 4.7449,-0.6689 9.3252,-1.6056 13.9762,-2.57 1.0497,-3.3745 1.9029,-6.93151 2.5177,-10.57943 z m 1.0564,-10.63101 c -1.7984,0.85988 -3.6595,1.53551 -5.606,2.10677 -2.1959,0.64243 -4.5914,1.40655 -6.942,1.82484 -1.5632,2.82362 -3.2683,5.57838 -5.0907,8.26999 5.6896,-0.89679 12.0984,-1.04603 16.9318,-3.8475 0.383,-2.75849 0.6271,-5.55629 0.7069,-8.3541 z m -3.2363,-21.44397 c -0.7383,4.04653 -1.8372,7.95732 -3.178,11.76309 0.8292,-0.30121 1.6633,-0.58964 2.4539,-0.94345 1.0736,-0.48496 2.1344,-1.00489 3.1964,-1.52025 -0.538,-3.19642 -1.3372,-6.31856 -2.4723,-9.29939 z m -7.6699,2.10555 c -0.2261,-0.52208 -0.4649,-1.10925 -0.6787,-1.7204 -1.7063,0.91398 -3.4108,1.90102 -5.1085,2.92859 1.8334,3.73455 3.1737,7.70059 4.7633,11.55246 1.1861,-2.82056 2.2604,-5.6971 3.1688,-8.66073 -0.7991,-1.32114 -1.53,-2.67248 -2.1449,-4.09992 z m 4.2849,-4.19455 c -0.9785,0.45429 -1.9619,0.93484 -2.9458,1.43117 0.1479,0.68795 0.2983,1.37216 0.5173,2.01279 0.284,0.82677 0.6284,1.63635 0.9994,2.43419 0.5327,-1.92741 1.0152,-3.88619 1.4293,-5.87815 z m -12.0764,6.66134 c -2.1153,1.34082 -4.2031,2.77199 -6.2541,4.2609 1.6057,2.12394 2.5055,4.83644 3.5257,7.25828 1.3654,3.23509 2.6345,6.50349 4.022,9.72443 1.6836,-2.89539 3.2284,-5.85726 4.5969,-8.90939 -2.1799,-3.99609 -3.8795,-8.2441 -5.8905,-12.33422 z m -13.3385,5.14537 c 5.8136,-4.38067 12.7955,-10.2152 19.9617,-13.63345 0.1792,-0.43603 0.6131,-0.59579 0.9945,-0.46076 1.5945,-0.70511 3.1946,-1.2917 4.7916,-1.70084 0.6388,-0.15976 1.1381,0.0614 1.4711,0.41072 0.3841,-0.0862 0.7923,-0.0614 1.1523,0.0984 0.5539,-0.15977 1.1578,-0.0614 1.5098,0.54681 13.8195,23.09074 2.8659,86.77562 -33.825,78.74032 -4.49,-0.9839 -9.0224,-3.0226 -12.8441,-5.9113 -3.987,3.5748 -8.0022,7.0292 -11.9406,10.3786 -1.0202,0.8654 -2.5386,-0.6701 -1.656,-1.678 3.4127,-3.8814 7.0169,-7.5827 10.6765,-11.2306 -2.3918,-2.3605 -4.3315,-5.1153 -5.5348,-8.2056 -3.2646,-8.3835 0.4773,-18.3794 4.8893,-25.56647 5.2965,-8.62566 12.3024,-15.71567 20.3537,-21.78485"
       style="fill:#aec193;fill-opacity:1;fill-rule:nonzero;stroke:none;stroke-width:5.89247656"
       id="path3809"
       inkscape:connector-curvature="0" />
    <path
       d="m 689.1687,286.36793 c -2.2622,3.4022 -5.72338,5.2148 -9.5396,5.9285 -0.56919,-2.6234 -1.14429,-5.2473 -1.70138,-7.8763 0.11489,0.4726 0.63385,0.6334 0.9944,0.2829 2.15165,-2.1036 4.22899,-4.2958 6.73138,-6.1238 2.4544,-1.7898 5.0735,-3.3359 7.598,-5.0164 -0.3966,4.5637 -1.5792,9.0384 -4.0828,12.8042 z m 4.173,-19.46552 c 0.073,1.22906 0.084,2.47599 0.062,3.72288 -3.4943,1.78801 -6.8455,4.00414 -9.96211,6.37074 -2.20633,1.675 -5.96726,4.2185 -5.54589,7.2811 -0.51325,-2.4152 -1.01468,-4.8279 -1.47785,-7.2516 6.01699,-2.67129 11.40555,-6.55196 16.92325,-10.12312 z m -18.28674,2.14182 c -0.21577,-1.51469 -0.38831,-3.01767 -0.53267,-4.51825 5.94392,-3.26833 10.97933,-7.93768 16.38881,-12.00026 0.9803,3.72971 1.7168,7.43837 2.1363,11.00396 0.036,0.33783 0.073,0.67258 0.1063,1.00675 -5.7738,3.54653 -11.09978,7.72209 -17.01965,11.0401 -0.39657,-2.17063 -0.76901,-4.34748 -1.0792,-6.5323 z m -0.92623,-16.23955 c 2.26894,-1.24693 4.45377,-2.63937 6.61766,-4.0656 2.3924,-1.5755 5.22341,-2.92004 7.55501,-4.638 0.7629,2.12881 1.4483,4.28104 2.065,6.4334 -5.45673,4.02679 -10.38906,8.6532 -15.95885,12.52162 -0.27681,-3.44514 -0.38889,-6.86336 -0.2786,-10.25142 z m -2.95631,-7.00097 c -0.707,-0.63575 -1.42622,-1.25735 -2.09266,-1.89431 -1.71372,-1.64189 -3.30516,-3.40221 -4.66325,-5.34376 1.35809,-2.10498 2.83651,-4.12825 4.45071,-6.00841 0.97843,1.94834 2.04043,4.03734 3.50112,5.49857 -0.53623,2.55953 -0.92077,5.14479 -1.19592,7.74791 z m -5.78789,44.96262 c -7.54578,-2.8714 -10.51437,-9.416 -11.12552,-16.62955 2.77016,2.63075 6.37941,4.93775 9.00704,7.03045 3.83037,3.0558 7.9776,7.2332 12.44181,9.6219 0.1533,0.6198 0.30122,1.2432 0.45843,1.8611 -3.73146,0.098 -7.55687,-0.6584 -10.78158,-1.8839 z m -9.55494,-32.30831 c 1.6523,2.417 4.07051,4.47099 6.10236,6.38975 3.6006,3.39736 6.82714,7.51997 10.58254,10.67656 0.63209,3.7996 1.4035,7.5796 2.26158,11.3313 -2.82049,-2.3138 -6.12138,-4.3106 -8.84979,-6.3758 -2.50725,-1.896 -5.01085,-3.7921 -7.50094,-5.7073 -1.18547,-0.91398 -2.38138,-1.81813 -3.57421,-2.72658 -0.23874,-0.17807 -0.47907,-0.35004 -0.71559,-0.52797 -0.047,-4.46607 0.68242,-9.0451 1.69405,-13.06036 z m 3.68784,-10.70109 c 0.99196,1.97106 2.8746,3.68292 4.27623,5.18715 2.253,2.41456 4.67308,4.66939 7.00776,7.00593 0.17268,3.7646 0.54857,7.54273 1.06879,11.31591 -1.94838,-2.36972 -4.55942,-4.41018 -6.69269,-6.28539 -3.09751,-2.7149 -5.94755,-5.5471 -8.83813,-8.43215 0.83597,-2.92005 1.90167,-5.87815 3.17804,-8.79145 z m 4.24801,-8.13974 c 0.88817,1.46618 1.90659,2.82969 3.0386,4.15643 1.27454,1.49752 2.63746,3.17376 4.1282,4.58218 -0.20571,2.76894 -0.27859,5.55077 -0.23695,8.34369 -3.66694,-3.32362 -8.20428,-6.45243 -10.35773,-10.7441 1.0251,-2.16267 2.16759,-4.28668 3.42799,-6.3382 z m 12.43014,-13.88893 c -1.37402,3.25785 -2.4274,6.58696 -3.25791,9.95416 -0.4543,-0.6081 -0.91761,-1.20636 -1.31809,-1.83342 -0.54506,-0.85625 -1.06201,-1.72908 -1.58225,-2.60131 1.89244,-2.04226 3.93965,-3.91018 6.15825,-5.51943 z m 4.52316,5.12753 c 0.40716,-0.27034 0.855,-0.57748 1.29723,-0.91574 0.79544,1.45932 1.55651,2.97221 2.29113,4.51138 -3.07604,1.82125 -5.9077,4.04108 -8.86584,6.05946 0.47731,-2.58592 1.05712,-5.16074 1.80218,-7.71717 1.19653,-0.57098 2.35927,-1.20084 3.4753,-1.93793 z m -1.10558,-5.03293 c 0.49084,0.78682 0.96984,1.59453 1.44342,2.41639 -0.43017,0.42364 -0.85992,0.84638 -1.31999,1.20324 -0.59331,0.46079 -1.22353,0.87898 -1.86602,1.27759 0.5256,-1.63628 1.10196,-3.26955 1.74259,-4.89722 z m 5.54215,10.4775 c 0.88939,1.95875 1.71499,3.9716 2.48639,6.00898 -2.15412,0.77145 -4.0797,2.29658 -5.95311,3.55701 -2.50543,1.68177 -4.95865,3.43355 -7.47265,5.09622 0.15258,-2.8746 0.43839,-5.73379 0.89305,-8.57155 3.45074,-1.84577 6.67359,-4.09874 10.04632,-6.09066 z m 7.16319,9.98364 c -2.1142,-5.88983 -4.3826,-13.37357 -7.9242,-19.20631 0.0747,-0.39947 -0.16012,-0.71372 -0.49791,-0.80096 -0.81263,-1.25849 -1.68666,-2.43358 -2.64121,-3.48019 -0.38418,-0.41778 -0.83718,-0.50973 -1.25177,-0.39951 -0.23624,-0.23982 -0.55037,-0.4054 -0.87776,-0.47375 -0.32168,-0.37478 -0.80951,-0.57748 -1.33834,-0.31953 -20.81559,10.08811 -42.94686,61.02598 -12.78704,72.53848 3.69089,1.4103 7.91191,2.0792 12.01861,1.804 1.18055,4.4482 5.21476,18.0933 6.46844,22.3561 0.32348,1.1037 2.13998,0.7155 1.97965,-0.4237 -0.62343,-4.3966 -4.24496,-18.0276 -5.15894,-22.3733 2.83281,-0.5709 5.52617,-1.6369 7.84557,-3.2929 6.2959,-4.4862 8.3173,-13.4344 8.5316,-20.68102 0.2574,-8.69506 -1.4397,-17.09206 -4.3665,-25.24785"
       style="fill:#aec193;fill-opacity:1;fill-rule:nonzero;stroke:none;stroke-width:5.89247656"
       id="path3811"
       inkscape:connector-curvature="0" />
    <path
       d="m 453.19397,159.83262 c 6.80075,0.37474 12.33249,3.81684 16.58229,8.69872 -3.29224,3.03483 -6.57776,6.07838 -9.88041,9.10097 0.57805,-0.56509 0.3724,-1.44888 -0.43369,-1.6682 -4.83892,-1.31626 -9.74841,-2.44956 -14.48594,-4.50108 -4.65093,-2.01408 -9.08387,-4.47283 -13.63155,-6.68038 6.89653,-3.28366 14.32254,-5.36645 21.8493,-4.95003 z m -31.49701,10.4486 c 1.70511,-1.14239 3.48575,-2.21121 5.29529,-3.23508 5.52248,3.51156 11.54004,6.4525 17.573,8.93211 4.26894,1.75666 11.10466,5.01085 15.14933,1.81935 -3.03303,2.77687 -6.08021,5.53845 -9.16857,8.24905 -8.92533,-6.38609 -19.05523,-10.85216 -28.84905,-15.76543 z m 18.52755,24.47273 c -1.99006,1.58839 -4.00783,3.10613 -6.04337,4.58096 -9.71589,-5.78053 -20.68107,-9.07094 -31.08978,-13.41169 4.53056,-4.5601 9.23674,-8.75282 14.00931,-12.37062 0.44428,-0.33783 0.89983,-0.66884 1.35438,-1.00118 9.9751,5.29834 20.47406,9.42849 30.24337,15.12846 -2.78244,2.40659 -5.59256,4.77925 -8.47391,7.07407 z m -22.55075,15.05045 c -3.71056,-2.20754 -7.55504,-4.16999 -11.4357,-6.07471 -4.28672,-2.10681 -8.61026,-5.04036 -13.04805,-6.93653 2.41456,-2.89733 4.92734,-5.70066 7.49911,-8.40261 10.39769,4.43474 21.21172,7.61705 31.4829,12.34969 -4.72033,3.31127 -9.53961,6.35841 -14.49826,9.06416 z m -7.56358,10.1667 c -0.31701,1.55091 -0.60074,3.11105 -0.95452,4.60857 -0.91031,3.84627 -2.09761,7.62067 -3.73943,11.21273 -4.17186,-0.17197 -8.32954,-0.58333 -12.397,-1.31996 1.97598,-3.05213 4.0797,-6.34254 4.94457,-9.67722 4.1319,-1.38748 8.17291,-3.02262 12.14638,-4.82412 z m 69.50177,-29.67949 c 2.2511,13.26913 -4.64662,23.06981 -14.49646,30.04314 1.44159,-6.20554 1.70454,-13.34046 2.49319,-18.88387 1.15599,-8.08761 3.65279,-17.57677 3.31317,-26.01255 0.76283,-0.74507 1.53432,-1.48151 2.28979,-2.23027 3.28919,5.2805 5.43901,11.41603 6.40031,17.08355 z m -38.35491,41.03471 c 2.07733,-4.41876 2.98761,-9.62983 4.02685,-14.17087 1.83906,-8.04578 5.03548,-16.16648 6.40031,-24.22763 4.92795,-4.11959 9.70727,-8.42353 14.37475,-12.82509 -0.94529,6.0084 -1.0233,12.43879 -1.68665,18.10441 -0.60624,5.20195 -1.21369,10.4044 -1.8648,15.60021 -0.30983,2.47961 -0.59762,4.96048 -0.89373,7.44138 -0.0531,0.49731 -0.10232,0.98399 -0.1551,1.47469 -6.3775,3.84074 -13.57561,6.66318 -20.20196,8.6029 z m -18.49072,3.74191 c 1.99196,-3.09202 2.86229,-7.24486 3.83892,-10.52852 1.56692,-5.27741 2.76344,-10.66113 4.1473,-15.99082 5.26514,-3.42798 10.3755,-7.16443 15.35691,-11.09787 -1.75856,4.80208 -2.4827,10.27979 -3.37456,14.93004 -1.28804,6.74173 -2.94892,13.23293 -4.65402,19.82302 -4.90092,1.26592 -10.05121,2.23702 -15.31455,2.86415 z m -15.2869,0.77145 c 1.35622,-2.51462 2.45323,-5.13122 3.40343,-7.87561 1.07428,-3.09877 2.33532,-6.47523 3.09758,-9.80743 4.15094,-2.04043 8.21097,-4.28847 12.18993,-6.71042 -1.67865,8.07895 -2.3402,17.24263 -6.68773,23.96472 -3.9734,0.3565 -7.99168,0.5097 -12.00321,0.43014 z m -30.46078,-6.1257 c 5.84125,-0.7764 11.51182,-2.07546 17.05218,-3.72966 -0.48557,1.16712 -0.95574,2.33844 -1.52022,3.44403 -0.76904,1.50614 -1.58594,2.98826 -2.39919,4.47157 -4.53543,-0.9944 -8.94931,-2.3555 -13.13277,-4.18594 z m 3.54467,-10.83127 c -0.73462,-0.36239 -1.55461,-0.74323 -2.41327,-1.09151 1.42623,-2.37826 2.95807,-4.74981 4.54768,-7.10599 5.21667,2.88379 10.79882,5.07716 16.19966,7.62315 -4.12142,1.49878 -8.31044,2.83776 -12.61435,3.92917 -1.83536,-1.23394 -3.71735,-2.37453 -5.71972,-3.35482 z m -6.30137,5.83938 c 0.71559,-1.36845 1.47477,-2.74183 2.25483,-4.11589 0.97355,0.25813 1.94156,0.52208 2.8433,0.88145 1.16518,0.4608 2.29841,1.01286 3.41445,1.60006 -2.79659,0.62835 -5.63245,1.18177 -8.51258,1.63438 z m 10.37371,-16.81688 c 2.06692,-2.93415 4.26216,-5.8229 6.53476,-8.65204 2.92992,2.44467 6.74855,3.9231 10.14153,5.55076 4.53608,2.17804 9.12376,4.2241 13.63834,6.43348 -4.26216,2.20744 -8.60962,4.21175 -13.07077,5.958 -5.56797,-3.40037 -11.5297,-6.12695 -17.24386,-9.2902 z m 8.29454,-18.73154 c -6.67542,8.01631 -15.5111,17.59953 -20.90218,27.61817 -0.63327,0.22762 -0.89309,0.83536 -0.73092,1.39054 -1.12156,2.23405 -2.07181,4.48205 -2.76833,6.74001 -0.2768,0.90048 -0.0251,1.6314 0.48787,2.13136 -0.14684,0.54682 -0.11668,1.1332 0.0625,1.65779 -0.26639,0.78136 -0.14791,1.65538 0.67011,2.19897 32.0836,21.38621 123.98508,10.14889 115.04251,-42.9204 -1.09334,-6.49426 -3.69645,-13.12301 -7.56297,-18.79175 5.39348,-5.45861 10.61694,-10.96091 15.68372,-16.36671 1.31133,-1.39675 -0.78194,-3.67919 -2.28435,-2.48456 -5.79278,4.61226 -11.33988,9.51318 -16.81759,14.49642 -3.21243,-3.58832 -7.01814,-6.55691 -11.35705,-8.49294 -11.76988,-5.25663 -26.33624,-0.59586 -36.92927,5.21419 -12.71391,6.977 -23.34495,16.51104 -32.59401,27.60891"
       style="fill:#aec193;fill-opacity:1;fill-rule:nonzero;stroke:none;stroke-width:5.89247656"
       id="path3813"
       inkscape:connector-curvature="0" />
    <path
       d="m 512.12958,128.77688 c -2.28431,4.49548 -2.1332,9.31468 -0.58512,13.85019 3.16755,-0.98158 6.3364,-1.95505 9.49964,-2.94953 -0.57629,0.15977 -1.06688,-0.30121 -0.90845,-0.89613 0.95391,-3.58901 2.05091,-7.15453 2.49623,-10.94989 0.43549,-3.72651 0.50679,-7.47818 0.7819,-11.21147 -4.66443,3.1989 -8.75401,7.18213 -11.28399,12.15683 z m 18.38818,-16.29373 c -1.36361,0.66709 -2.71125,1.41032 -4.03795,2.18852 0.19853,4.84197 -0.15222,9.78895 -0.8047,14.57322 -0.45961,3.38684 -0.91391,8.972 -4.45864,10.37927 2.90594,-0.91276 5.80509,-1.83906 8.68827,-2.81016 -0.77637,-8.08753 0.12314,-16.23462 0.61302,-24.33085 z m 8.79386,20.95259 c 1.75856,-0.68604 3.47896,-1.4133 5.17861,-2.16942 -0.0937,-8.3695 1.86968,-16.6155 2.95441,-24.89285 -4.60365,1.2088 -9.03469,2.66576 -13.12484,4.37948 -0.38066,0.15976 -0.76226,0.32527 -1.14368,0.49731 -0.30947,8.35597 -1.56319,16.61425 -1.53927,24.98864 2.57359,-0.88939 5.13617,-1.80703 7.67477,-2.80143 z m 18.01412,-8.85532 c -0.0359,-3.19646 0.13535,-6.38799 0.35471,-9.57946 0.24233,-3.52937 -0.0287,-7.38742 0.40245,-10.93273 -2.75116,0.47258 -5.48137,1.03996 -8.16623,1.68242 -1.02021,8.30679 -2.99802,16.41521 -3.77806,24.74971 3.87205,-1.79356 7.61213,-3.74862 11.18692,-5.91994 z m 9.31967,-1.07062 c 1.11112,0.37478 2.21674,0.77145 3.30639,1.10013 2.8015,0.84641 5.6607,1.48704 8.5703,1.76898 1.43976,-2.73699 2.71739,-5.55207 3.75727,-8.43029 -2.68848,0.13499 -5.57722,0.25813 -8.0335,-0.42367 -2.42374,2.13075 -4.96913,4.1123 -7.60046,5.98751 z m -44.81413,33.49754 c 7.66253,6.36713 16.50005,5.58889 24.62442,1.86792 -4.50963,-1.38078 -9.17718,-3.8598 -13.02159,-5.41322 -5.60853,-2.26341 -12.61321,-4.1872 -17.89005,-7.5372 -0.75917,0.21505 -1.51834,0.43017 -2.27938,0.6394 2.16267,4.06686 5.29281,7.72149 8.5666,10.4431 z m 40.5225,-9.33072 c -3.60059,-0.30696 -7.27616,-1.66275 -10.57026,-2.68289 -5.8364,-1.80954 -12.22436,-2.77755 -17.89551,-4.89607 -4.46726,1.62591 -8.99972,3.09019 -13.55113,4.44457 4.20012,1.62645 8.34735,3.96299 12.22314,5.64354 3.55697,1.54233 7.11399,3.08527 10.68328,4.59629 1.70263,0.72109 3.39855,1.45875 5.09812,2.1921 0.33568,0.1472 0.66827,0.29476 1.00302,0.44845 4.82782,-2.65835 9.30801,-6.22086 13.00934,-9.7447 z m 9.26256,-10.45539 c -2.71918,0.12889 -5.70375,-0.85686 -8.16921,-1.44894 -3.96116,-0.95577 -7.85414,-2.18853 -11.78029,-3.28 -4.15277,2.09819 -8.44257,3.98384 -12.81095,5.71419 3.72959,0.6566 7.50585,2.22535 10.81594,3.38314 4.79647,1.67685 9.57091,3.02262 14.42332,4.37884 2.63076,-2.66881 5.16562,-5.60606 7.52119,-8.74723 z m 6.17057,-9.50521 c -2.11359,-0.0614 -4.19764,-0.33173 -6.3094,-0.74133 -2.38379,-0.46018 -5.01272,-0.91089 -7.43151,-1.65901 -2.84638,1.90102 -5.79583,3.6663 -8.82398,5.31547 5.79831,1.92569 11.91291,4.90469 17.83286,4.61543 1.70262,-2.41276 3.29407,-4.9305 4.73203,-7.53056 z m 7.38609,-21.78475 c -2.66576,3.45441 -5.60487,6.60416 -8.71958,9.53954 0.92626,0.12242 1.85248,0.25167 2.77016,0.30695 1.24991,0.0679 2.50173,0.0926 3.75354,0.12243 1.0485,-3.27501 1.81446,-6.60785 2.19588,-9.96827 z m -8.25466,-1.74937 c 0.0413,-0.60193 0.10268,-1.27142 0.19854,-1.95017 -2.05278,0 -4.14052,0.12888 -6.23997,0.27034 -0.0908,4.41201 -0.75734,8.80132 -1.13388,13.20651 2.49193,-2.08279 4.90343,-4.26944 7.20127,-6.62013 -0.1095,-1.63452 -0.14073,-3.26276 -0.0251,-4.9095 z m 6.08151,-1.86846 c -1.14368,-0.0614 -2.3052,-0.0736 -3.47344,-0.0862 -0.19674,0.71925 -0.38831,1.4367 -0.4926,2.14856 -0.13535,0.91771 -0.20392,1.84882 -0.24234,2.78068 1.44159,-1.55834 2.84695,-3.16885 4.20812,-4.8457 z m -14.62355,0.39894 c -2.6467,0.23336 -5.31188,0.57098 -7.96899,0.97354 0.4785,2.78366 0.007,5.77871 -0.20859,8.55741 -0.28936,3.71179 -0.68238,7.41004 -0.94403,11.12247 2.99681,-1.91021 5.89413,-3.94892 8.66921,-6.15894 -0.1095,-4.82775 0.35722,-9.6593 0.45254,-14.49448 z m -15.07806,-1.64181 c 7.61395,-1.299144 17.03189,-3.400384 25.45176,-3.133814 0.37948,-0.31952 0.86545,-0.2646 1.16149,0.0614 1.84699,0.11094 3.64056,0.33819 5.34502,0.72966 0.67933,0.1533 1.05346,0.58965 1.18424,1.10379 0.40364,0.11058 0.76779,0.344304 1.03745,0.654784 0.60067,0.11668 1.11603,0.52204 1.15962,1.24625 1.78621,28.49036 -39.53414,83.18059 -70.20379,57.74972 -3.75354,-3.11352 -7.03232,-7.24179 -9.22755,-11.8239 -5.49857,1.42931 -10.964,2.73146 -16.3078,3.96977 -1.38077,0.31953 -2.06502,-1.86662 -0.74136,-2.38569 5.10487,-1.99684 10.30186,-3.73081 15.52708,-5.3886 -1.10563,-3.38993 -1.59335,-6.92967 -1.22227,-10.42774 1.00485,-9.49042 9.39517,-17.09088 17.05275,-21.71668 9.18767,-5.5526 19.2426,-8.82215 29.78336,-10.62613"
       style="fill:#aec193;fill-opacity:1;fill-rule:nonzero;stroke:none;stroke-width:5.89247656"
       id="path3815"
       inkscape:connector-curvature="0" />
    <path
       d="m 1173.793,263.0544 c -3.2677,7.71961 -9.5588,12.69244 -16.9846,15.58481 -2.143,-5.07906 -4.3003,-10.15255 -6.426,-15.2384 0.4107,0.90537 1.5215,1.03436 2.1117,0.191 3.5417,-5.05634 6.9003,-10.26927 11.2494,-14.90423 4.2708,-4.54771 8.9646,-8.65876 13.4174,-13.00629 0.931,9.35536 0.2478,18.82485 -3.3679,27.3725 z m 1.0171,-40.84002 c 0.6132,2.45139 1.1104,4.96048 1.5423,7.48191 -6.3689,4.93596 -12.2833,10.67959 -17.6671,16.63454 -3.8131,4.21358 -10.4308,10.77727 -8.4196,16.79113 -1.9538,-4.67118 -3.8828,-9.34975 -5.7353,-14.05781 11.1169,-7.67789 20.5084,-17.55221 30.2797,-26.84977 z m -36.0656,11.26679 c -1.0117,-2.96668 -1.9293,-5.93714 -2.7892,-8.90756 10.7428,-8.8467 19.1226,-20.17923 28.4865,-30.42577 3.3952,7.14713 6.2906,14.34344 8.495,21.37884 0.2046,0.65657 0.3981,1.32366 0.5934,1.98705 -10.2915,9.34789 -19.4485,19.78916 -30.1231,28.72989 -1.6278,-4.2241 -3.2068,-8.46895 -4.6626,-12.76245 z m -8.0401,-32.39196 c 4.1017,-3.37761 7.9773,-7.01447 11.8008,-10.71645 4.226,-4.08829 9.4249,-7.87317 13.4695,-12.22436 2.3502,4.00295 4.5527,8.08387 6.6109,12.18817 -9.4701,10.19552 -17.6603,21.3978 -27.4226,31.32252 -1.868,-6.84799 -3.3898,-13.69908 -4.4586,-20.56988 z m -8.6239,-12.99703 c -1.6644,-1.01166 -3.3554,-1.99195 -4.9415,-3.02448 -4.0777,-2.65714 -7.9554,-5.60487 -11.4321,-9.00335 1.9379,-4.76212 4.1473,-9.40569 6.6927,-13.81034 2.7142,3.56071 5.6484,7.36645 9.1495,9.75889 -0.1113,5.36405 0.097,10.72504 0.5317,16.07928 z m 5.4236,92.87309 c -16.3097,-2.92002 -24.7864,-14.99265 -28.76,-29.30845 6.5865,4.25537 14.7419,7.53411 20.834,10.75699 8.8867,4.70622 18.839,11.55361 28.7514,14.67384 0.545,1.1929 1.0792,2.39241 1.6296,3.58157 -7.4869,1.60864 -15.489,1.5423 -22.455,0.29475 z m -31.5545,-61.52288 c 4.2532,4.24679 9.9102,7.4715 14.7368,10.56714 8.5539,5.4808 16.6292,12.56715 25.3978,17.50673 2.721,7.42418 5.7141,14.75437 8.8688,21.99434 -6.5671,-3.59762 -13.9826,-6.36587 -20.27,-9.49663 -5.7733,-2.86903 -11.5452,-5.73871 -17.2923,-8.65815 -2.7426,-1.39312 -5.4987,-2.75968 -8.2498,-4.13557 -0.5486,-0.26459 -1.095,-0.52858 -1.6418,-0.7936 -1.7937,-8.98805 -2.0633,-18.5012 -1.5495,-26.98426 z m 3.369,-22.97894 c 2.7511,3.59693 7.1997,6.33392 10.5967,8.83263 5.4595,4.01336 11.1973,7.64343 16.7929,11.46702 1.7793,7.52675 3.9782,15.0013 6.4597,22.41015 -4.8301,-4.03612 -10.8738,-7.15826 -15.8896,-10.12681 -7.2729,-4.30204 -14.0996,-8.93029 -21.0225,-13.64818 0.5751,-6.20554 1.5951,-12.5763 3.0628,-18.93481 z m 5.4757,-18.02938 c 2.3468,2.61844 4.9206,4.9795 7.703,7.22575 3.1424,2.5349 6.5294,5.39905 10.0722,7.67294 0.634,5.65704 1.5459,11.29814 2.6933,16.91335 -8.6602,-5.30876 -18.9987,-9.89334 -24.9727,-17.72967 1.2432,-4.74981 2.7407,-9.47018 4.5042,-14.08237 z m 19.786,-32.73288 c -1.5355,7.0894 -2.3936,14.2022 -2.7852,21.30758 -1.1492,-1.04969 -2.311,-2.08229 -3.3568,-3.19649 -1.4246,-1.51835 -2.7986,-3.08218 -4.1793,-4.64167 3.0405,-4.83891 6.4561,-9.38484 10.3213,-13.46942 z m 11.0684,8.61826 c 0.7224,-0.69961 1.5079,-1.49196 2.2701,-2.3402 2.1591,2.64178 4.268,5.40454 6.3366,8.22697 -5.5145,4.8419 -10.3813,10.39457 -15.578,15.59031 0,-5.3978 0.1759,-10.80916 0.7015,-16.2482 2.1957,-1.6123 4.3006,-3.31683 6.2698,-5.22888 z m -4.1405,-9.73125 c 1.2889,1.39988 2.5652,2.85066 3.8303,4.32538 -0.7061,1.02029 -1.4134,2.03188 -2.2057,2.92684 -1.0218,1.15782 -2.1329,2.24068 -3.2768,3.28861 0.4373,-3.50115 0.9783,-7.01454 1.6522,-10.54083 z m 15.1598,19.02386 c 2.5375,3.61417 4.9698,7.3616 7.3009,11.17283 -4.0533,2.37464 -7.3562,6.18224 -10.6559,9.43517 -4.4119,4.34753 -8.6928,8.80808 -13.1346,13.11748 -0.7801,-5.85546 -1.2924,-11.72687 -1.4558,-17.62222 6.2573,-5.03361 11.901,-10.80366 17.9454,-16.10326 z m 18.2419,17.4109 c -6.5028,-11.07332 -13.9237,-25.30188 -23.2839,-35.71917 0,-0.82677 -0.5953,-1.38203 -1.3072,-1.42565 -2.1189,-2.23023 -4.3272,-4.26768 -6.6533,-6.01382 -0.928,-0.69656 -1.8783,-0.70888 -2.6725,-0.32527 -0.5712,-0.39894 -1.2623,-0.60814 -1.9465,-0.61855 -0.7942,-0.63326 -1.8544,-0.85995 -2.8262,-0.14145 -38.1393,28.25449 -63.4078,139.39046 1.7918,151.14131 7.9781,1.43976 16.7409,1.18543 24.9193,-0.93362 4.0741,8.52302 8.2735,16.86671 12.4226,24.98684 1.0745,2.10182 4.5897,0.62706 3.8303,-1.61054 -2.9284,-8.63237 -6.2939,-17.09949 -9.7849,-25.51937 5.4954,-2.22718 10.5195,-5.39905 14.5699,-9.61819 10.9916,-11.44429 11.6637,-30.25686 9.3423,-44.95045 -2.7835,-17.63199 -9.4001,-33.92198 -18.4017,-49.25616"
       style="fill:#aec193;fill-opacity:1;fill-rule:nonzero;stroke:none;stroke-width:5.89247656"
       id="path3817"
       inkscape:connector-curvature="0" />
    <path
       d="m 1152.7625,362.11244 c -2.4808,-5.86225 -7.2564,-9.63719 -12.8944,-11.83131 -1.6277,3.85492 -3.2645,7.70676 -4.8808,11.5684 0.3124,-0.68794 1.1579,-0.7856 1.6059,-0.1472 2.6883,3.83895 5.2373,7.79645 8.5399,11.3153 3.2423,3.45261 6.8066,6.57288 10.186,9.87374 0.7062,-7.10168 0.1903,-14.29243 -2.5566,-20.77994 z m 0.7716,31.00379 c 0.4649,-1.8593 0.8426,-3.76402 1.1718,-5.67915 -4.8352,-3.74679 -9.3258,-8.10664 -13.4135,-12.62858 -2.8941,-3.20015 -7.9185,-8.18152 -6.3916,-12.74826 -1.4834,3.54656 -2.9475,7.09866 -4.3548,10.6728 8.4393,5.82961 15.5708,13.32509 22.9881,20.38319 z m -27.381,-8.55375 c -0.768,2.25483 -1.4645,4.50783 -2.1168,6.76391 8.1554,6.71596 14.5193,15.31886 21.6264,23.09986 2.5784,-5.4273 4.7756,-10.89086 6.4489,-16.23279 0.1544,-0.49735 0.3016,-1.00306 0.4506,-1.50798 -7.8122,-7.09675 -14.7641,-15.02402 -22.8693,-21.81056 -1.2343,3.20683 -2.4344,6.42975 -3.5398,9.68756 z m -6.1026,24.59307 c 3.113,2.56502 6.0559,5.32477 8.9582,8.13489 3.2092,3.10426 7.1562,5.97696 10.2272,9.28158 1.7847,-3.03982 3.4545,-6.13736 5.018,-9.25397 -7.1893,-7.74112 -13.4082,-16.2445 -20.8182,-23.77861 -1.4196,5.19757 -2.5735,10.40009 -3.3852,15.61611 z m -6.5481,9.86696 c -1.2641,0.76779 -2.5472,1.51167 -3.7506,2.29665 -3.0976,2.01648 -6.0397,4.25537 -8.6795,6.83386 1.4716,3.61657 3.1496,7.14038 5.0807,10.48489 2.0615,-2.70198 4.2885,-5.59252 6.947,-7.40824 -0.086,-4.07231 0.072,-8.1434 0.4032,-12.20716 z m 4.1176,-70.50849 c -12.381,2.21857 -18.8182,11.38351 -21.835,22.24982 5.0015,-3.22959 11.1931,-5.71789 15.8175,-8.16555 6.7474,-3.57295 14.3018,-8.76995 21.8285,-11.13966 0.4147,-0.90533 0.8186,-1.81626 1.2365,-2.71796 -5.6829,-1.22231 -11.7596,-1.1738 -17.0475,-0.22762 z m -23.9542,46.70772 c 3.2279,-3.22284 7.5213,-5.67297 11.1865,-8.02179 6.4946,-4.16138 12.6248,-9.54266 19.2809,-13.29125 2.0672,-5.63621 4.3391,-11.20105 6.7334,-16.69786 -4.985,2.73031 -10.614,4.83342 -15.3881,7.20863 -4.3829,2.17811 -8.7647,4.35797 -13.1281,6.57407 -2.0823,1.05715 -4.1736,2.09453 -6.2627,3.13937 -0.4183,0.20284 -0.8322,0.39951 -1.2469,0.60192 -1.3617,6.82345 -1.5667,14.04554 -1.175,20.48634 z m 2.5576,17.44599 c 2.0877,-2.73028 5.4656,-4.80941 8.0423,-6.70677 4.1452,-3.04717 8.5018,-5.80139 12.7501,-8.70425 1.3513,-5.71412 3.0207,-11.39022 4.9045,-17.01412 -3.6663,3.06445 -8.2545,5.43413 -12.0622,7.68892 -5.5231,3.26467 -10.7041,6.77806 -15.9608,10.36147 0.4366,4.70991 1.2103,9.54631 2.3261,14.37475 z m 4.156,13.68687 c 1.7814,-1.98707 3.7344,-3.78 5.8487,-5.48449 2.3849,-1.92554 4.9547,-4.10057 7.6452,-5.82588 0.4825,-4.29533 1.1751,-8.57709 2.0453,-12.84108 -6.5739,4.03117 -14.4231,7.50949 -18.9585,13.46077 0.9435,3.60609 2.0801,7.18896 3.4193,10.69068 z m 15.0208,24.85103 c -1.165,-5.38372 -1.8163,-10.78094 -2.1153,-16.1769 -0.871,0.79543 -1.7517,1.581 -2.548,2.42741 -1.081,1.15226 -2.1239,2.33773 -3.1719,3.52194 2.3085,3.67559 4.9013,7.12634 7.8352,10.22755 z m 8.4038,-6.54334 c 0.5486,0.52854 1.1446,1.13198 1.7226,1.77569 1.64,-2.00546 3.2419,-4.10182 4.8104,-6.24485 -4.1854,-3.67739 -7.8804,-7.89098 -11.8256,-11.83616 0,4.09816 0.1329,8.20544 0.5332,12.33555 1.6658,1.22417 3.2648,2.51957 4.7598,3.96977 z m -3.1421,7.38792 c 0.9765,-1.06261 1.9444,-2.16454 2.9059,-3.2843 -0.5364,-0.77451 -1.0724,-1.5423 -1.6752,-2.22163 -0.7744,-0.87897 -1.6173,-1.70083 -2.4862,-2.49687 0.3303,2.65901 0.7418,5.3266 1.2555,8.0028 z m 11.5068,-14.44293 c 1.9276,-2.74384 3.7733,-5.58889 5.5421,-8.48252 -3.0767,-1.80222 -5.5837,-4.69272 -8.0893,-7.16314 -3.3482,-3.2996 -6.5987,-6.68773 -9.9695,-9.95728 -0.5938,4.44521 -0.9823,8.90206 -1.1058,13.37852 4.7502,3.81984 9.035,8.20055 13.6225,12.22442 z m 13.8508,-13.21882 c -4.9375,8.4063 -10.5719,19.20809 -17.6775,27.11817 0,0.62838 -0.4524,1.04843 -0.9927,1.08286 -1.6084,1.69283 -3.2854,3.24068 -5.0506,4.56556 -0.7059,0.52793 -1.4264,0.54032 -2.0288,0.24556 -0.4348,0.30122 -0.9593,0.46019 -1.4777,0.47258 -0.6028,0.47907 -1.4092,0.65294 -2.1455,0.10483 -28.9549,-21.45065 -48.1386,-105.82534 1.3578,-114.74518 6.0576,-1.09335 12.7106,-0.90045 18.9197,0.7088 3.0937,-6.47207 6.2817,-12.806 9.4314,-18.97165 0.8146,-1.59448 3.4838,-0.47257 2.908,1.22417 -2.2238,6.55378 -4.7782,12.9817 -7.4298,19.37339 4.1717,1.69096 7.9866,4.10056 11.0616,7.30255 8.3449,8.68827 8.8569,22.97029 7.093,34.12593 -2.1135,13.38706 -7.135,25.75269 -13.9689,37.39354"
       style="fill:#aec193;fill-opacity:1;fill-rule:nonzero;stroke:none;stroke-width:5.89247656"
       id="path3819"
       inkscape:connector-curvature="0" />
    <path
       d="m 750.42937,-10.254784 c 0,-6.509748 -1.89805,-15.731167 -6.50976,-24.138911 -3.25408,-5.694557 -6.78089,-12.746723 -8.67894,-22.239354 -13.83161,-37.157364 -24.95155,-80.009231 -38.78415,-123.675821 -1.62731,-9.76379 -1.62731,-26.03586 -13.01799,-19.52768 -14.10428,56.1421 -32.81686,115.538814 -46.64994,173.850599 0,3.254141 -7.05216,18.7145244 2.44045,18.7145244 6.50972,0 6.50972,-15.4603834 6.50972,-18.7145244 8.67946,-27.121748 13.28918,-49.903568 21.69745,-70.516132 9.49263,0 27.66422,-4.340447 40.41094,0 5.69606,16.816003 19.52773,47.463148 27.39352,70.516132 2.44193,4.611704 5.15359,25.76621839 15.18866,15.731167 z m -81.09512,-96.553556 c 4.34045,-23.86766 13.83308,-40.14025 17.35843,-64.27912 9.76384,17.62917 12.74818,40.14026 17.90037,64.27912 -14.37402,-2.9844 -21.42572,0 -35.2588,0 z m 133.16994,-87.87456 c -0.81521,-8.95021 -12.20583,-7.86533 -20.88531,-7.05218 -11.11941,0.81369 -23.59496,2.16978 -29.02031,5.15419 1.35761,9.2199 16.27359,5.42334 25.22427,5.42334 1.08437,19.52768 0.81316,42.85193 -0.54246,61.56593 -2.98289,38.784137 0.8132,80.010218 0,113.098299 -5.96723,2.169774 -16.27354,-0.813156 -17.62963,5.696592 8.137,8.1365334 20.88376,0.541945 30.91881,-0.813678 6.50971,-0.81363 15.18871,0.271068 17.08676,-4.882914 -1.62684,-7.865324 -11.66189,-2.711674 -19.25648,-3.525303 -3.52535,-60.209875 1.35609,-117.708066 0,-172.495026 5.15412,-0.27154 12.20483,1.3561 14.10435,-2.16925 z m 125.30258,11.93309 c 2.71216,-7.59407 -6.50973,-13.55988 -13.01797,-17.08669 -33.08907,-19.52769 -76.75461,2.71167 -78.92538,39.05537 -0.81363,13.83254 5.96728,30.91829 13.83265,37.42804 16.00134,14.64675 57.49862,11.11994 74.04193,28.477837 30.37738,32.546134 6.23853,82.178492 -42.30946,81.365336 -8.9507,0 -23.59545,0 -32.54567,-6.508707 -5.15413,-4.068763 -9.49263,-13.018974 -11.39115,-20.340884 -1.35704,-4.882867 2.71172,-19.256424 -9.76384,-17.900848 -4.06924,3.525351 -3.2556,11.391149 -2.44192,15.458917 2.17071,11.93456 11.11993,27.664215 18.714,31.733452 27.12231,17.627697 82.45125,7.3219104 97.63851,-17.900847 25.4949,-43.666545 -9.22144,-82.450696 -45.56372,-90.316496 -8.95015,-1.89803 -19.25646,-0.81367 -29.2915,-4.88144 -34.71634,-14.10229 -13.56187,-65.09227 13.83165,-71.60101 24.13786,-5.9673 27.66421,9.49263 47.19187,13.01792 z M 1129.863,-7.5426366 c -6.5081,-44.2094854 -12.7467,-100.3505934 -20.0695,-149.7116934 -1.356,-8.67946 -5.9663,-46.10751 -13.8316,-47.46362 -2.9829,-0.27107 -3.7966,0 -5.6961,1.89852 -15.1878,32.54565 -25.7652,69.43128 -39.5978,103.876927 -13.018,-26.037417 -17.0856,-48.819197 -28.7491,-76.483927 -3.7966,-9.22141 -11.12,-29.56274 -23.5955,-24.41007 -8.1371,42.85287 -10.30624,98.18082 -16.0024,145.101495 -1.89855,16.54475 -5.69508,31.731984 -4.61029,45.5650624 14.10288,5.152656 11.11999,-12.4755144 12.47559,-22.2393554 6.50971,-49.091924 9.76385,-103.605682 17.0872,-147.815162 10.5777,23.0545 21.1551,52.61723 30.1053,78.65314 2.983,7.323377 5.9674,22.512074 14.6449,21.156451 4.8828,-0.81363 8.4082,-14.917914 9.7639,-17.900854 8.6793,-22.512067 19.8001,-61.567427 32.0046,-84.620457 13.0179,59.39671 14.374,122.048991 25.2226,176.8340064 4.0688,0.813677 8.6791,0.813677 10.8482,-2.440463 z m 129.3725,-2.7121474 c 0,-6.509748 -1.8984,-15.731167 -6.5097,-24.138911 -3.2541,-5.694557 -6.781,-12.746723 -8.6795,-22.239354 -13.8316,-37.157314 -24.951,-80.009231 -38.784,-123.675771 -1.627,-9.76384 -1.627,-26.03591 -13.0181,-19.52768 -14.1037,56.14205 -32.817,115.538764 -46.6495,173.850549 0,3.254141 -7.0522,18.7145244 2.4405,18.7145244 6.5097,0 6.5097,-15.4603834 6.5097,-18.7145244 8.6791,-27.121748 13.2892,-49.903568 21.6969,-70.516132 9.4928,0 27.6648,-4.340447 40.4115,0 5.6962,16.816003 19.5277,47.463148 27.393,70.516132 2.4419,4.611704 5.1541,25.76621839 15.1892,15.731167 z m -81.095,-96.553556 c 4.3399,-23.86766 13.8324,-40.14025 17.3577,-64.27912 9.7641,17.62917 12.7485,40.14026 17.901,64.27912 -14.3742,-2.9844 -21.4263,0 -35.2587,0"
       style="fill:#fbca98;fill-opacity:1;fill-rule:nonzero;stroke:none;stroke-width:4.73068047"
       id="path3399"
       inkscape:connector-curvature="0" />
    <path
       d="m 399.40592,532.38505 c 7.79725,0 43.26001,6.03665 43.26001,-3.52067 0.75451,-9.30586 -21.3792,-4.27614 -31.18803,-5.03064 -12.82604,-1.00605 -29.17461,-1.50905 -41.24654,-1.50905 -13.58196,0 -26.91145,-2.26312 -34.95976,3.01762 -0.75451,10.56341 13.32909,7.79725 22.88637,7.04274 8.80286,-0.25137 20.87616,-0.25137 29.17597,0.75451 3.77217,42.50546 1.25755,87.27404 0,127.51493 -0.75543,14.085 -1.76148,28.42142 2.01205,41.24795 13.07755,6.03665 9.30582,-17.10262 9.30582,-27.91749 -0.7545,-10.06037 0.75411,-19.61725 1.50862,-28.42002 2.01205,-42.25396 -1.50862,-78.22016 -0.75451,-113.17988 z m 129.7795,77.46513 c 8.80277,-8.80277 17.35317,-16.59958 20.37219,-28.67152 6.53922,-26.65994 -13.33089,-60.61409 -42.25391,-63.38162 -13.32958,-1.2575 -24.64833,4.52765 -39.23494,4.52765 -3.27057,9.55731 -0.7545,20.12068 0,30.18061 2.01162,51.55973 -1.76059,106.89168 1.50862,150.90571 3.26912,0.25137 6.7912,1.7606 9.80886,0 0.75451,-25.40235 0.25181,-55.33146 1.50857,-77.71667 18.10864,-0.75451 28.92351,-8.04691 48.29061,-6.03529 3.26917,1.76055 5.28123,4.77822 8.29885,6.7912 6.03669,11.31743 7.54526,34.95835 8.29981,53.57139 0.75451,10.81487 -3.52067,28.67196 11.3188,22.63531 1.76055,-10.06037 0,-23.64228 -0.75451,-36.97177 -1.25847,-25.90588 -4.77914,-51.05678 -27.16295,-55.835 z m 9.80882,-36.97133 c -3.27053,26.91145 -29.93047,38.73193 -58.09943,41.49805 0.25181,-28.9235 -0.25137,-53.57139 -2.26312,-80.73434 12.07194,-5.02968 28.92346,-8.55127 40.74395,-2.26356 12.07334,7.2942 21.63022,26.66039 19.6186,41.49985 z M 642.3639,519.30702 c -23.13836,0.75455 -39.4864,15.84415 -48.03771,29.67805 -12.82649,20.87475 -22.1323,56.84052 -18.10863,86.51949 6.53969,41.24655 29.42607,72.68608 70.92544,71.42853 8.0487,0 23.1384,-2.01298 32.9482,-10.56429 18.3601,-15.84416 24.6469,-53.5714 26.6599,-87.02114 0.7545,-12.82789 2.7665,-27.66599 0,-39.73934 -1.2585,-5.02972 -6.0367,-15.0896 -10.0613,-21.37775 -3.7722,-6.2882 -9.3058,-13.3309 -14.084,-17.60563 -11.066,-9.05432 -25.1509,-11.56942 -40.2419,-11.31792 z M 599.60834,672.47638 C 574.457,629.21637 589.29511,557.03334 623.24926,534.14561 c 10.81484,-5.28123 27.66594,-9.05432 41.75094,-4.02368 12.8265,5.28074 26.4089,24.14529 30.4321,41.24651 2.7675,10.31323 0,24.39683 -0.7541,38.48174 -2.0121,35.4632 -7.7972,79.72878 -36.9718,86.51862 -28.169,6.79071 -48.79225,-8.55132 -58.09806,-23.89242 z m 224.34626,-143.612 c 2.0117,-8.04831 -7.5457,-5.78519 -12.8264,-5.78519 l -77.4657,0 c -2.0116,39.98948 -2.2631,90.79471 -2.2631,129.27509 -1.7601,15.84552 -1.5086,33.45115 2.2631,48.54211 15.091,4.27522 30.9351,2.26312 49.0438,0 10.0617,0 22.1337,2.26312 30.182,0 3.7721,0 13.078,-1.76007 11.0663,-7.54526 -29.4265,-4.02367 -52.8173,2.01162 -80.9863,0 -2.0116,-28.9235 0,-51.81128 0,-75.2007 17.8572,0 39.738,1.76012 56.0865,1.76012 7.2938,0 24.8998,2.26312 24.8998,-8.04827 -23.3912,-3.26917 -54.8289,-0.25137 -80.9863,-3.52067 0,-26.91145 1.5091,-47.7876 1.5091,-73.19044 26.6599,-2.01161 55.8345,1.76192 79.4772,-6.28679 z m 22.1333,-6.7912 c -1.006,0.25137 -1.5086,1.00601 -1.2571,2.01206 2.0116,38.48038 -3.522,95.32231 -2.2636,138.33077 0,9.30582 -0.7554,30.68362 2.2636,34.20429 6.0353,8.04826 30.1806,8.80277 42.7565,8.80277 8.8028,0 18.6116,-2.01206 27.4145,-2.26356 8.04733,0 21.37783,2.26356 21.37783,-7.29376 -4.2762,-4.02367 -12.8266,-3.01762 -19.86883,-2.26312 -18.8632,1.25707 -46.0261,5.0306 -61.3686,-2.26356 -4.7791,-45.52312 0.7545,-94.31625 0.7545,-140.59388 0,-8.55132 0.7546,-21.88081 -4.528,-27.9175 -0.2509,-1.76007 -3.5202,-0.503 -5.2808,-0.75451 z m 203.7231,18.10864 c 2.5147,-7.04226 -6.0367,-12.57455 -12.0724,-15.84508 -30.6845,-18.10863 -71.17707,2.51462 -73.18997,36.21727 -0.7546,12.82741 5.5336,28.67156 12.8278,34.70821 14.8381,13.5824 53.31997,10.31187 68.66107,26.40844 28.1699,30.18106 5.7852,76.20671 -39.2349,75.45264 -8.29984,0 -21.88087,0 -30.18067,-6.03577 -4.7796,-3.77305 -8.8028,-12.07286 -10.5634,-18.86266 -1.2584,-4.52808 2.5146,-17.85713 -9.0543,-16.60006 -3.7731,3.26917 -3.019,10.56337 -2.2645,14.33554 2.013,11.06734 10.3119,25.6539 17.3541,29.42747 25.15133,16.34668 76.45967,6.7898 90.54327,-16.60006 23.6422,-40.49336 -8.5513,-76.45912 -42.2526,-83.75337 -8.2998,-1.76007 -17.8571,-0.7545 -27.16307,-4.52667 -32.1936,-13.07756 -12.5759,-60.36211 12.82657,-66.39789 22.3839,-5.53364 25.6544,8.80326 43.763,12.07199"
       style="fill:#fbca98;fill-opacity:1;fill-rule:nonzero;stroke:none;stroke-width:4.38690948"
       id="path3401"
       inkscape:connector-curvature="0" />
  </g>
</svg>
